Chris Paul & Derrick Rose - need I say more? Enjoy... Not the best quality, still very watchable

Video
ID                               : 224 (0xE0)
Format                           : MPEG Video
Format version                   : Version 2
Format profile                   : High@High
Format settings, BVOP            : Yes
Format settings, Matrix          : Default
Format settings, GOP             : M=3, N=12
Duration                         : 6mn 54s
Bit rate mode                    : Variable
Bit rate                         : 10.2 Mbps
Nominal bit rate                 : 4 500 Kbps
Width                            : 960 pixels
Height                           : 536 pixels
Display aspect ratio             : 16:9
Frame rate                       : 25.000 fps
Color space                      : YUV
Chroma subsampling               : 4:2:0
Bit depth                        : 8 bits
Scan type                        : Progressive
Scan order                       : Bottom Field First
Compression mode                 : Lossy
Bits/(Pixel*Frame)               : 0.792
Stream size                      : 503 MiB (97%)

Audio
ID                               : 192 (0xC0)
Format                           : MPEG Audio
Format version                   : Version 1
Format profile                   : Layer 2
Duration                         : 6mn 53s
Bit rate mode                    : Constant
Bit rate                         : 128 Kbps
Channel(s)                       : 2 channels
Sampling rate                    : 44.1 KHz
Compression mode                 : Lossy
Delay relative to video          : -58ms
Stream size                      : 6.31 MiB (1%)